<?xml version="1.0" encoding="UTF-8"?>
<!DOCTYPE svg PUBLIC "-//W3C//DTD SVG 1.1//EN" "http://www.w3.org/Graphics/SVG/1.1/DTD/svg11.dtd">
<svg version="1.1" xmlns="http://www.w3.org/2000/svg" xmlns:xlink="http://www.w3.org/1999/xlink" x="0" y="0" width="800" height="800" viewBox="0 0 800 800">
  <g id="Layer_1">
    <g>
      <path d="M45.184,449.033 C90.666,421.772 187.612,425.835 254.329,423.781 C320.999,421.772 491.74,412.684 536.172,405.612 C580.604,398.534 620.013,397.529 646.316,425.835 C672.573,454.102 640.242,496.479 647.32,513.649 C654.353,530.819 667.504,578.311 645.266,591.462 C623.027,604.568 508.865,614.705 461.419,614.705 C413.927,614.705 92.675,617.719 54.271,624.797" fill="#AA704B"/>
      <g>
        <path d="M565.169,391.821 C536.263,415.47 483.612,493.466 524.071,532.874 C564.484,572.283 600.788,589.499 648.325,588.403 C665.951,588.037 700.109,496.89 675.587,418.118" fill="#E9BC76"/>
        <path d="M565.169,391.821 C536.263,415.47 483.612,493.466 524.071,532.874 C564.484,572.283 600.788,589.499 648.325,588.403 C665.951,588.037 700.109,496.89 675.587,418.118" fill-opacity="0" stroke="#D8994F" stroke-width="16.569" stroke-linecap="round" stroke-linejoin="round"/>
      </g>
      <g>
        <path d="M557.315,613.427 C577.544,598.312 567.498,564.154 537.177,544.975 C506.855,525.796 463.428,499.539 422.01,511.64 C380.592,523.787 352.28,555.067 366.436,584.384 C380.592,613.655 386.62,609.637 413.927,615.71" fill="#E9BC76"/>
        <path d="M557.315,613.427 C577.544,598.312 567.498,564.154 537.177,544.975 C506.855,525.796 463.428,499.539 422.01,511.64 C380.592,523.787 352.28,555.067 366.436,584.384 C380.592,613.655 386.62,609.637 413.927,615.71" fill-opacity="0" stroke="#D8994F" stroke-width="16.569" stroke-linecap="round" stroke-linejoin="round"/>
      </g>
      <g>
        <path d="M248.895,405.84 C264.101,418.986 261.361,477.346 237.113,497.529 C212.911,517.713 98.703,553.058 62.354,550.044 C52.262,527.805 41.576,464.696 45.641,430.356" fill="#E9BC76"/>
        <path d="M248.895,405.84 C264.101,418.986 261.361,477.346 237.113,497.529 C212.911,517.713 98.703,553.058 62.354,550.044 C52.262,527.805 41.576,464.696 45.641,430.356" fill-opacity="0" stroke="#D8994F" stroke-width="16.569" stroke-linecap="round" stroke-linejoin="round"/>
      </g>
      <g>
        <path d="M57.331,627.811 C51.212,616.715 38.243,571.963 54.408,547.715 C70.573,523.513 184.507,521.321 207.751,535.431 C230.948,549.633 258.347,594.476 225.012,619.729" fill="#E9BC76"/>
        <path d="M57.331,627.811 C51.212,616.715 38.243,571.963 54.408,547.715 C70.573,523.513 184.507,521.321 207.751,535.431 C230.948,549.633 258.347,594.476 225.012,619.729" fill-opacity="0" stroke="#D8994F" stroke-width="16.569" stroke-linecap="round" stroke-linejoin="round"/>
      </g>
      <g>
        <path d="M258.347,419.762 C239.122,443.964 244.191,483.373 264.42,505.566 C284.65,527.805 355.705,526.298 396.118,516.161 C436.532,506.069 490.736,498.534 513.979,475.291 C537.177,452.093 548.319,419.762 553.342,395.52" fill="#E9BC76"/>
        <path d="M258.347,419.762 C239.122,443.964 244.191,483.373 264.42,505.566 C284.65,527.805 355.705,526.298 396.118,516.161 C436.532,506.069 490.736,498.534 513.979,475.291 C537.177,452.093 548.319,419.762 553.342,395.52" fill-opacity="0" stroke="#D8994F" stroke-width="16.569" stroke-linecap="round" stroke-linejoin="round"/>
      </g>
      <g>
        <path d="M255.334,619.728 C231.04,607.628 226.839,564.702 234.876,542.464 C242.959,520.271 262.64,511.411 297.984,527.576 C333.329,543.742 394.749,543.97 375.523,621.783" fill="#E9BC76"/>
        <path d="M255.334,619.728 C231.04,607.628 226.839,564.702 234.876,542.464 C242.959,520.271 262.64,511.411 297.984,527.576 C333.329,543.742 394.749,543.97 375.523,621.783" fill-opacity="0" stroke="#D8994F" stroke-width="16.569" stroke-linecap="round" stroke-linejoin="round"/>
      </g>
      <path d="M25,411.685 L45.184,449.033 C90.666,421.772 187.612,425.836 254.329,423.781 C320.999,421.772 491.74,412.684 536.172,405.612 C580.604,398.534 620.013,397.529 646.316,425.836 C672.573,454.102 640.242,496.479 647.32,513.649 C654.353,530.819 667.505,578.311 645.266,591.462 C623.027,604.568 508.865,614.705 461.419,614.705 C413.927,614.705 92.675,617.719 54.271,624.798 L66.372,651.055 C132.084,643.018 257.343,640.963 311.866,637.903 C366.436,634.889 562.43,622.788 610.926,622.788 C659.422,622.788 688.738,615.71 698.831,595.481 C708.922,575.297 706.913,550.044 698.831,534.883 C690.747,519.723 708.922,440.951 731.161,429.854 C753.4,418.712 772.579,386.387 764.496,374.286 C776.597,351.134 778.652,314.739 768.514,297.546 C758.423,280.422 737.189,266.266 694.766,256.174 C657.412,232.93 609.921,200.6 569.508,189.457 C538.182,174.342 469.501,152.104 433.106,149.09 C396.757,146.03 354.335,192.517 347.257,215.715 C309.857,236.949 66.372,370.267 25,411.685" fill="#FEEEB9"/>
      <path d="M347.257,215.715 C309.857,236.949 66.372,370.267 25,411.685 L43.174,406.616 C132.084,392.46 290.678,395.52 369.496,384.378 C448.267,373.281 593.71,362.185 629.1,359.125 C613.939,334.923 561.425,292.569 529.094,277.362 C496.764,262.247 421.005,230.921 350.271,219.824 z" fill="#F3B674"/>
      <path d="M764.497,374.286 C776.598,351.134 778.653,314.739 768.515,297.546 C758.423,280.422 737.189,266.265 694.766,256.174 C657.412,232.93 609.921,200.599 569.507,189.457 C538.182,174.342 469.502,152.104 433.107,149.09 C396.758,146.03 354.335,192.517 347.257,215.715 L350.271,219.824 C421.006,230.921 496.764,262.247 529.094,277.362 C561.425,292.568 613.94,334.923 629.1,359.125 L637.229,342.046 C658.417,348.074 663.44,329.854 677.596,317.753 C691.753,305.651 734.175,287.454 752.35,311.725 C761.437,321.817 771.894,328.758 764.497,374.286" fill="#D4874B"/>
      <path d="M675.587,359.125 C687.734,350.083 709.927,337.982 729.152,348.074 C748.331,358.166 714.995,371.226 707.917,385.428" fill-opacity="0" stroke="#D8994F" stroke-width="16.569" stroke-linecap="round" stroke-linejoin="round"/>
      <path d="M94.365,400.772 C124.458,398.169 157.885,396.525 191.586,395.109 C189.805,369.628 186.426,334.192 183.503,308.574 C155.282,325.013 127.198,341.772 102.402,357.253 C100.21,371.82 97.333,387.94 94.365,400.772" fill="#D79A5E"/>
      <path d="M261.59,263.8 C267.755,299.921 277.572,359.49 282.367,391.319 C315.748,389.721 346.161,387.711 369.496,384.378 C372.053,384.058 374.702,383.693 377.396,383.328 C365.295,342.321 342.325,264.394 328.58,226.218 C312.278,235.305 288.669,248.456 261.59,263.8" fill="#D79A5E"/>
      <path d="M441.691,242.885 C454.387,280.924 472.058,338.759 479,372.094 C510.691,369.125 542.291,366.34 568.777,364.148 C561.881,339.444 553.661,309.578 546.127,286.724 C540.099,283.025 534.3,279.828 529.094,277.362 C510.874,268.868 478.863,255.169 441.691,242.885" fill="#D79A5E"/>
      <path d="M164.187,319.853 C219.715,332.594 319.264,357.664 391.826,381.455 C460.414,372.961 559.05,364.879 607.683,360.906 C516.171,332.32 322.78,293.984 237.022,277.727 C213.55,291.107 188.572,305.469 164.187,319.853" fill="#D79A5E"/>
      <path d="M768.515,297.546 C758.423,280.421 737.189,266.265 694.766,256.173 C657.412,232.93 609.921,200.599 569.507,189.457 C538.182,174.342 469.502,152.103 433.107,149.089 C396.758,146.03 354.335,192.517 347.257,215.714 C309.857,236.949 66.372,370.267 25,411.685 L44.819,448.394 C44.956,479.674 52.034,520.91 59.568,542.828 C57.422,544.336 55.596,545.979 54.408,547.715 C39.522,570.091 49.385,609.773 55.733,624.569 C55.276,624.66 54.682,624.706 54.271,624.797 L66.372,651.055 C132.084,643.017 257.343,640.962 311.867,637.903 C366.436,634.889 562.43,622.788 610.926,622.788 C659.421,622.788 688.738,615.71 698.831,595.48 C708.922,575.296 706.913,550.044 698.831,534.883 C690.748,519.723 708.922,440.951 731.161,429.854 C753.4,418.712 772.579,386.387 764.497,374.285 C776.598,351.133 778.652,314.739 768.515,297.546 z" fill-opacity="0" stroke="#1A1919" stroke-width="16.569" stroke-linecap="round" stroke-linejoin="round"/>
      <path d="M629.1,359.125 L637.229,342.047 C658.417,348.074 663.44,329.854 677.596,317.753 C691.753,305.651 734.175,287.454 752.35,311.725" fill-opacity="0" stroke="#1A1919" stroke-width="16.569" stroke-linecap="round" stroke-linejoin="round"/>
      <path d="M43.175,406.616 C132.084,392.46 290.678,395.52 369.496,384.378 C448.268,373.281 593.71,362.185 629.1,359.125" fill-opacity="0" stroke="#1A1919" stroke-width="16.569" stroke-linecap="round" stroke-linejoin="round"/>
    </g>
  </g>
</svg>
